HIERARCHY
ROOT root
{
	OFFSET	0	13.1	24.9
	CHANNELS 6  Xposition Yposition Zposition Xrotation Yrotation Zrotation
	JOINT spine_1
	{
		OFFSET	0	9.99999	0
		CHANNELS 3  Xrotation Yrotation Zrotation
		JOINT spine_2
		{
			OFFSET	0	112	-10
			CHANNELS 3  Xrotation Yrotation Zrotation
			JOINT spine_3
			{
				OFFSET	0	206.5	19.3
				CHANNELS 3  Xrotation Yrotation Zrotation
				JOINT spine_4
				{
					OFFSET	0	110.4	14.6
					CHANNELS 3  Xrotation Yrotation Zrotation
					JOINT neck_1
					{
						OFFSET	0	71.8	-50.3
						CHANNELS 3  Xrotation Yrotation Zrotation
						JOINT neck_2
						{
							OFFSET	0	86.2	-25.8
							CHANNELS 3  Xrotation Yrotation Zrotation
							JOINT head_ee
							{
								OFFSET	0	179.8	-8.7
								CHANNELS 3  Xrotation Yrotation Zrotation
								End Site
								{
									OFFSET	1	0	0
								}
							}
						}
					}
					JOINT left_clavicle
					{
						OFFSET	-43.2	22.4	-70.8
						CHANNELS 3  Xrotation Yrotation Zrotation
						JOINT left_shoulder
						{
							OFFSET	-93.9	-5.79999	48.7
							CHANNELS 3  Xrotation Yrotation Zrotation
							JOINT left_elbow
							{
								OFFSET	-291.4	-30.8	15.2
								CHANNELS 3  Xrotation Yrotation Zrotation
								JOINT left_lowarm_twist
								{
									OFFSET	-110.7	-3.89999	13.6
									CHANNELS 3  Xrotation Yrotation Zrotation
									JOINT left_hand
									{
										OFFSET	-110.7	-3.89999	13.6
										CHANNELS 3  Xrotation Yrotation Zrotation
										JOINT left_ee
										{
											OFFSET	-80.8	-5.10001	12.1
											CHANNELS 3  Xrotation Yrotation Zrotation
											End Site
											{
												OFFSET	1	0	0
											}
										}
									}
								}
							}
						}
					}
					JOINT right_clavicle
					{
						OFFSET	43.2	22.4	-70.8
						CHANNELS 3  Xrotation Yrotation Zrotation
						JOINT right_shoulder
						{
							OFFSET	93.9	-5.79999	48.7
							CHANNELS 3  Xrotation Yrotation Zrotation
							JOINT right_elbow
							{
								OFFSET	291.4	-30.8	15.2
								CHANNELS 3  Xrotation Yrotation Zrotation
								JOINT right_lowarm_twist
								{
									OFFSET	110.7	-3.89999	13.6
									CHANNELS 3  Xrotation Yrotation Zrotation
									JOINT right_hand
									{
										OFFSET	110.7	-3.89999	13.6
										CHANNELS 3  Xrotation Yrotation Zrotation
										JOINT right_ee
										{
											OFFSET	80.8	-5.10001	12.1
											CHANNELS 3  Xrotation Yrotation Zrotation
											End Site
											{
												OFFSET	1	0	0
											}
										}
									}
								}
							}
						}
					}
				}
			}
		}
	}
	JOINT left_hip
	{
		OFFSET	-82.8	-127.5	0.300001
		CHANNELS 3  Xrotation Yrotation Zrotation
		JOINT left_knee
		{
			OFFSET	-28.2	-396.7	2.2
			CHANNELS 3  Xrotation Yrotation Zrotation
			JOINT left_ankle
			{
				OFFSET	-11.7	-411.3	35.4
				CHANNELS 3  Xrotation Yrotation Zrotation
				JOINT left_toes
				{
					OFFSET	0	-60	-88.6
					CHANNELS 3  Xrotation Yrotation Zrotation
					JOINT left_foot_ee
					{
						OFFSET	-22.5	-16.5	-42.2
						CHANNELS 3  Xrotation Yrotation Zrotation
						End Site
						{
							OFFSET	1	0	0
						}
					}
				}
			}
		}
	}
	JOINT right_hip
	{
		OFFSET	82.8	-127.5	0.300001
		CHANNELS 3  Xrotation Yrotation Zrotation
		JOINT right_knee
		{
			OFFSET	28.2	-396.7	2.2
			CHANNELS 3  Xrotation Yrotation Zrotation
			JOINT right_ankle
			{
				OFFSET	11.7	-411.3	35.4
				CHANNELS 3  Xrotation Yrotation Zrotation
				JOINT right_toes
				{
					OFFSET	0	-60	-88.6
					CHANNELS 3  Xrotation Yrotation Zrotation
					JOINT right_foot_ee
					{
						OFFSET	22.5	-16.5	-42.2
						CHANNELS 3  Xrotation Yrotation Zrotation
						End Site
						{
							OFFSET	1	0	0
						}
					}
				}
			}
		}
	}
}
MOTION
Frames: 8
Frame Time: 0.02
2545.91 690.33 -585.35 148.765 -84.5492 154.733 2.32354 -0.593639 -3.34576 2.32968 -0.379661 -3.37671 2.35142 0.199525 -3.3921 2.33552 -0.338384 -3.38109 -13.2387 8.1613 11.4879 -12.9121 8.36537 13.3568 -0.0 0.0 -0.0 10.4066 14.6296 18.9999 -1.74184 -15.1738 65.1305 1.10705 -28.7396 0.283628 83.6165 -4.26165 -8.80035 -5.29157 27.1504 -18.8411 -0.0 0.0 -0.0 4.98968 -10.6447 -9.82562 -19.0349 4.94525 -59.1842 0.202065 5.71625 -0.0100882 38.4577 0.271481 4.8142 -3.43976 -28.7632 7.32703 0.0 0.0 0.0 -1.26917 -27.7069 0.311547 -16.1113 0.321673 2.44339 36.8601 27.0183 -4.92044 36.5852 -0.0 -0.0 -0.0 0.0 -0.0 2.10946 -10.3099 0.0544621 -43.2247 0.684561 -6.44371 3.37068 -6.83291 0.489193 9.50929 -0.0 -0.0 0.0 0.0 0.0 
2561.28 691.792 -586.852 159.822 -82.5516 164.844 2.5394 -0.399229 -2.83872 2.54386 -0.21786 -2.85835 2.55394 0.260939 -2.85474 2.54262 -0.192999 -2.86013 -14.3107 8.97869 9.20977 -14.1716 11.5763 11.5582 -0.0 0.0 -0.0 10.4675 13.9319 19.2112 -1.73742 -15.3211 62.7042 1.34975 -33.766 0.409665 81.5972 -4.02392 -8.69722 -4.76856 26.3973 -16.3225 -0.0 0.0 -0.0 5.32738 -11.9628 -10.4024 -20.7643 5.72549 -58.4512 0.225318 6.36891 -0.0125358 35.5435 0.137984 4.46639 -4.19677 -28.8735 11.3965 0.0 0.0 0.0 -2.28928 -24.825 0.892779 -13.4735 0.316291 2.03875 35.2052 26.7603 -4.73688 37.4485 -0.0 -0.0 -0.0 0.0 -0.0 7.9919 -20.0234 -0.828612 -38.9393 0.400666 -5.84922 0.682814 -9.34989 0.0997738 8.12828 -0.0 -0.0 0.0 0.0 0.0 
2572.39 692.872 -584.203 171.944 -82.1507 176.483 2.85312 -0.35614 -2.6508 2.85701 -0.186803 -2.66807 2.86468 0.245445 -2.66332 2.85482 -0.178103 -2.66867 -16.0434 8.45618 8.4903 -15.9581 11.3296 10.9017 -0.0 0.0 -0.0 10.1422 13.1997 18.7296 -0.814767 -15.5311 61.396 1.61242 -38.6131 0.564902 80.277 -3.87052 -8.62531 -4.67298 27.5338 -14.9733 -0.0 0.0 -0.0 5.40447 -14.1747 -10.4994 -22.3788 7.04963 -57.864 0.254284 7.17961 -0.0159528 32.6081 0.0215929 4.10971 -4.68044 -28.8106 14.1236 0.0 0.0 0.0 -1.5727 -21.85 0.799226 -11.9246 0.304453 1.8014 34.8598 26.6036 -4.69479 36.1655 -0.0 -0.0 -0.0 0.0 -0.0 9.24079 -20.0706 -0.982844 -40.4951 0.498563 -6.06744 0.266376 -11.3213 0.0390076 9.42677 -0.0 -0.0 0.0 0.0 0.0 
2589.25 690.74 -582.292 177.75 -83.3719 -177.689 3.17062 -0.609822 -2.54789 3.17412 -0.446513 -2.5815 3.19309 -0.0401269 -2.6195 3.1838 -0.453185 -2.58034 -15.8512 9.92565 8.13158 -15.8534 14.3276 11.0628 -0.0 0.0 -0.0 10.1884 12.9033 18.8523 -0.0894154 -16.0248 60.354 1.90173 -43.2868 0.754675 79.3046 -3.7586 -8.57008 -4.02232 28.2778 -10.8187 -0.0 0.0 -0.0 5.27979 -16.4702 -10.2468 -24.5189 7.59624 -57.2977 0.289462 8.16026 -0.020648 29.9175 -0.0688988 3.77801 -4.97153 -28.7828 15.7805 0.0 0.0 0.0 -1.88887 -16.0734 0.51803 -11.8263 0.303485 1.78634 36.8013 26.5091 -4.89736 36.248 -0.0 -0.0 -0.0 0.0 -0.0 10.0507 -24.9311 -0.769 -42.268 0.617323 -6.31282 0.607683 -14.4697 0.0893016 11.2542 -0.0 -0.0 0.0 0.0 0.0 
2613.68 693.081 -585.79 166.153 -83.3932 170.361 3.04134 -0.687546 -2.57061 3.04486 -0.522636 -2.60911 3.06766 -0.105294 -2.65882 3.05818 -0.52374 -2.60889 -18.4209 10.4563 8.7094 -18.4944 15.4882 12.1857 -0.0 0.0 -0.0 10.2866 12.4905 19.085 0.254771 -16.955 60.378 2.0575 -45.5402 0.863708 79.7943 -3.81485 -8.59813 -3.06843 28.6294 -5.39144 -0.0 0.0 -0.0 5.54595 -19.6322 -10.5603 -26.8041 8.30656 -54.7721 0.353632 9.93639 -0.0307411 28.0196 -0.123305 3.5417 -5.00203 -28.8108 15.9326 0.0 0.0 0.0 -6.12753 -13.1734 1.52619 -9.29387 0.269659 1.39927 35.3161 26.1996 -4.73116 34.5677 -0.0 -0.0 -0.0 0.0 -0.0 18.1613 -24.4884 2.2614 -44.6951 0.792156 -6.64267 -10.1326 -21.2237 -1.54777 12.6501 -0.0 -0.0 0.0 0.0 0.0 
2636.91 687.036 -589.923 156.313 -84.3239 159.976 3.05066 -0.68751 -2.64034 3.05438 -0.518167 -2.6787 3.07753 -0.0903883 -2.72682 3.06753 -0.519749 -2.67839 -18.4415 10.9577 9.04573 -18.5295 16.2809 12.6993 -0.0 0.0 -0.0 10.442 12.2931 19.395 1.36723 -17.8442 61.1276 2.29748 -48.6888 1.03961 78.3028 -3.6443 -8.51122 -2.89294 28.0557 -4.75701 -0.0 0.0 -0.0 5.40993 -22.2032 -10.248 -28.2038 7.67232 -52.3985 0.354128 9.95004 -0.0308267 25.8927 -0.174933 3.27493 -5.41002 -28.9874 18.124 0.0 0.0 0.0 -8.2665 -10.4205 1.96777 -8.70095 0.25927 1.30888 36.9746 25.711 -4.88966 30.8818 -0.0 -0.0 -0.0 0.0 -0.0 24.54 -20.2929 4.72625 -46.0019 0.892063 -6.81718 -11.1443 -28.8658 -1.77255 13.1441 -0.0 -0.0 0.0 0.0 0.0 
2654.77 689.264 -600.165 154.738 -84.105 157.998 2.98697 -0.508892 -2.79729 2.99126 -0.329935 -2.82397 3.00628 0.122124 -2.84054 2.99517 -0.327837 -2.82421 -19.4931 10.9862 8.64624 -19.6549 16.7316 12.5352 -0.0 0.0 -0.0 10.4441 12.6077 19.3561 2.22017 -18.7352 62.9929 2.48362 -50.8877 1.18178 77.3641 -3.53814 -8.45426 -2.60993 27.8211 -3.34169 -0.0 0.0 -0.0 5.48622 -23.908 -10.2727 -29.0759 7.7152 -49.9995 0.382818 10.7381 -0.0359784 24.4207 -0.204849 3.08927 -5.55768 -29.0967 18.8876 0.0 0.0 0.0 -9.32351 -5.25146 3.57525 -8.26958 0.251123 1.24319 36.7497 25.7646 -4.86815 27.4099 -0.0 -0.0 -0.0 0.0 -0.0 30.2297 -21.3164 9.97987 -46.7924 0.954429 -6.92163 -13.2526 -30.6379 -2.1379 13.3619 -0.0 -0.0 0.0 0.0 0.0 
2664.34 688.257 -609.848 159.158 -85.0713 161.756 2.92694 -0.6197 -2.89237 2.93149 -0.434476 -2.9259 2.95247 0.0377264 -2.95772 2.94052 -0.42966 -2.92661 -20.5666 10.8827 8.0953 -20.8046 16.9832 12.1888 -0.0 0.0 -0.0 10.5962 11.6829 19.7614 3.19189 -19.2397 64.193 2.61278 -52.3007 1.283 74.6066 -3.23185 -8.27699 -2.81195 24.5616 -6.21031 -0.0 0.0 -0.0 5.47948 -23.4663 -10.2862 -30.1115 7.61639 -49.8422 0.451354 12.6035 -0.0498442 23.367 -0.223326 2.95595 -5.79852 -29.0615 20.3121 0.0 0.0 0.0 -9.01674 -1.80063 5.22436 -7.16235 0.22795 1.07486 37.3623 25.3652 -4.91853 23.6927 -0.0 -0.0 -0.0 0.0 -0.0 34.2708 -16.2088 10.0636 -42.0193 0.600207 -6.27862 -14.102 -29.733 -2.26263 14.1105 -0.0 -0.0 0.0 0.0 0.0 
